<?xml version="1.0" encoding="UTF-8"?>
<svg version="1.1" xmlns="http://www.w3.org/2000/svg" width="1024" height="132">
<path d="M0 0 C5.95415795 1.86019788 9.71636206 6.83666179 13.70605469 11.43115234 C15.71876412 13.70915354 17.88273721 15.82392214 20.05078125 17.953125 C28.05078125 25.953125 28.05078125 25.953125 30.25708008 28.16381836 C32.82672397 30.72942016 35.4053766 33.28547107 37.98747253 35.83851624 C40.56471912 38.38891404 43.13658684 40.94470814 45.70825195 43.50073242 C47.06520679 44.84756926 48.42394245 46.19261419 49.78442383 47.53588867 C51.7568449 49.48406743 53.72274972 51.4386205 55.6875 53.39453125 C56.29583176 53.99254044 56.90416351 54.59054962 57.53092957 55.2066803 C58.09524185 55.77084152 58.65955414 56.33500275 59.2409668 56.91625977 C59.73662643 57.40747818 60.23228607 57.89869659 60.7429657 58.40480042 C63.18093611 61.29111685 64.0078431 63.56668162 64.42578125 67.328125 C63.74637839 73.89568594 59.11541128 78.20129827 54.66235352 82.77490234 C54.13645126 83.32197845 53.61054901 83.86905457 53.06871033 84.43270874 C47.59968361 90.10581179 42.07069269 95.72126517 36.53735352 101.33154297 C33.91931391 103.98971483 31.32077947 106.66492933 28.73754883 109.35693359 C25.60412086 112.62202977 22.4395602 115.85368886 19.2506237 119.06456375 C18.04698629 120.28708099 16.8544702 121.52065915 15.67398262 122.76554489 C5.31254812 133.66191084 5.31254812 133.66191084 -3.03540039 133.95556641 C-6.73157479 133.73428835 -8.39985349 133.399602 -11.28562927 131.05429077 C-13.94620414 127.69390113 -13.49133491 124.72727439 -13.34765625 120.59375 C-12.81870584 117.08815707 -11.63424032 115.24329046 -8.94921875 112.953125 C-8.28921875 112.953125 -7.62921875 112.953125 -6.94921875 112.953125 C-6.72234375 112.39625 -6.49546875 111.839375 -6.26171875 111.265625 C-4.05919752 107.38499236 -0.87770186 104.67779475 2.61328125 101.953125 C5.19555178 99.83433893 6.99968211 97.58109578 9.05078125 94.953125 C13.41441761 90.26221591 13.41441761 90.26221591 16.23828125 88.890625 C18.6260869 87.65555311 18.88689022 86.34937123 20.05078125 83.953125 C22.43468259 81.37593436 24.84560336 79.11326384 27.61328125 76.953125 C30.17805587 74.84869454 32.01086762 72.55577343 34.05078125 69.953125 C34.71078125 69.623125 35.37078125 69.293125 36.05078125 68.953125 C35.57522945 64.6731588 33.13717952 62.75894161 30.05078125 59.953125 C29.20515625 59.293125 28.35953125 58.633125 27.48828125 57.953125 C24.90601072 55.83433893 23.10188039 53.58109578 21.05078125 50.953125 C19.40534345 49.26549649 17.73789548 47.5990901 16.05078125 45.953125 C15.22578125 45.1075 14.40078125 44.261875 13.55078125 43.390625 C11.12314421 40.94415607 11.12314421 40.94415607 8.55078125 38.953125 C4.11196469 35.40207175 0.58723575 31.37369313 -2.94921875 26.953125 C-5.46807706 24.36968058 -7.87990737 22.0054936 -10.76171875 19.828125 C-13.66554799 16.01166372 -13.67435243 13.26285813 -13.4140625 8.55859375 C-12.94921875 5.953125 -12.94921875 5.953125 -11.13671875 2.765625 C-7.22724676 0.54259191 -4.48975808 -0.17011262 0 0 Z " fill="#297FE7" transform="translate(12.94921875,-0.953125)"/>
<path d="M0 0 C2.4375 2.25 2.4375 2.25 4 5 C5.65002828 6.35386936 7.3174387 7.68678142 9 9 C10.68762851 10.6454378 12.3540349 12.31288577 14 14 C15.2684375 15.2375 15.2684375 15.2375 16.5625 16.5 C19 19 19 19 21 21.5625 C23.11878607 24.14477053 25.37202922 25.94890086 28 28 C29.68762851 29.6454378 31.3540349 31.31288577 33 33 C33.845625 33.825 34.69125 34.65 35.5625 35.5 C38 38 38 38 40 40.5625 C42.11878607 43.14477053 44.37202922 44.94890086 47 47 C48.68762851 48.6454378 50.3540349 50.31288577 52 52 C52.86625 52.825 53.7325 53.65 54.625 54.5 C58.19978252 58.26292897 60.16836009 61.09247906 60.625 66.3125 C60.42029763 72.20012998 56.99638268 75.05063359 53 79 C51.84513839 80.34647542 50.69914963 81.70061564 49.5625 83.0625 C47.29129243 85.66201673 44.96191755 87.96585771 42.31933594 90.18383789 C37.69224794 94.18556657 33.52926248 98.55590121 29.328125 102.99609375 C27.6787973 104.70673232 26.02770135 106.41566747 24.375 108.12304688 C21.80061698 110.78378391 19.2368545 113.45148535 16.70117188 116.14916992 C14.22975631 118.77254414 11.72125025 121.35512356 9.203125 123.93359375 C8.08686737 125.1474601 8.08686737 125.1474601 6.94805908 126.385849 C2.68222308 130.67570923 -0.17113088 132.51684418 -6.32519531 132.69165039 C-10.51060035 132.53014458 -12.94798794 131.93843829 -16 129 C-17.55933311 124.32200067 -17.57094713 120.50249244 -15.8125 115.875 C-12.68778397 110.91855389 -8.52581085 107.62064868 -4 104 C-1.48020356 101.60312046 0.82724533 99.21594333 3 96.5 C6.55105325 92.06118344 10.57943187 88.5364545 15 85 C16.68762851 83.3545622 18.3540349 81.68711423 20 80 C20.825 79.195625 21.65 78.39125 22.5 77.5625 C24.31451389 75.70262326 25.97811465 73.87197176 27.625 71.875 C29.35713017 69.77821085 31.0643586 67.89088669 33 66 C32.38834488 65.3927861 31.77668976 64.7855722 31.14649963 64.15995789 C25.38780669 58.44131135 19.63391647 52.71788549 13.88539219 46.98901653 C10.92973245 44.04380142 7.97223802 41.10047865 5.01049805 38.16137695 C2.15322157 35.32580454 -0.6991654 32.48539812 -3.54820442 29.64155006 C-4.63692976 28.55652485 -5.72741612 27.47326375 -6.81966972 26.39179039 C-8.34726543 24.87867711 -9.86852307 23.35945622 -11.38842773 21.83862305 C-12.25668686 20.97480515 -13.12494598 20.11098724 -14.01951599 19.22099304 C-17.04918208 15.82340574 -17.43680362 12.57576856 -17.3203125 8.07421875 C-16.88634705 5.26402784 -15.85828487 3.13983855 -13.89453125 1.07421875 C-9.63694927 -1.33987412 -4.6673307 -0.8975636 0 0 Z " fill="#287FE8" transform="translate(72,0)"/>
<path d="M0 0 C0.74886475 0.00523682 1.49772949 0.01047363 2.26928711 0.01586914 C3.07817383 0.0190918 3.88706055 0.02231445 4.72045898 0.02563477 C5.5705957 0.03401367 6.42073242 0.04239258 7.29663086 0.05102539 C8.15063477 0.05553711 9.00463867 0.06004883 9.88452148 0.06469727 C12.00108749 0.07652166 14.11761771 0.0944577 16.23413086 0.11352539 C15.62815962 8.50038977 14.45362144 16.76848029 13.13232422 25.06591797 C12.79670916 27.17553322 12.46716096 29.2860311 12.13842773 31.39672852 C10.99694152 38.670303 9.77166414 45.91207821 8.23413086 53.11352539 C12.30353268 53.28669143 14.28778043 52.95167242 17.38647461 50.20727539 C19.75821302 47.57293677 22.01068233 44.87418296 24.23413086 42.11352539 C25.38655273 40.71360352 25.38655273 40.71360352 26.56225586 39.28540039 C27.32022461 38.36243164 28.07819336 37.43946289 28.85913086 36.48852539 C29.61838867 35.58231445 30.37764648 34.67610352 31.15991211 33.74243164 C33.2507521 31.22472248 33.2507521 31.22472248 34.65209961 28.64086914 C36.36840191 25.91497725 37.37254143 24.66608987 40.23413086 23.11352539 C46.84272068 22.14470441 53.5983571 22.62511741 60.23413086 23.11352539 C60.72913086 24.59852539 60.72913086 24.59852539 61.23413086 26.11352539 C59.71459961 28.42602539 59.71459961 28.42602539 57.42163086 31.11352539 C56.59018555 32.09321289 55.75874023 33.07290039 54.90209961 34.08227539 C51.57502245 37.89021441 48.15402127 41.61170724 44.73413086 45.33618164 C36.89395516 53.49201138 36.89395516 53.49201138 31.23413086 63.11352539 C32.34687557 66.01089304 33.52445528 68.55213949 34.97631836 71.27368164 C35.57985641 72.45310585 35.57985641 72.45310585 36.19558716 73.65635681 C37.48522177 76.17092118 38.79591247 78.67370816 40.10913086 81.17602539 C41.41172682 83.68351061 42.70972613 86.19320009 44.00125122 88.70640564 C44.80642058 90.27050174 45.61862692 91.83099899 46.43844604 93.38746643 C49.23413086 98.78031749 49.23413086 98.78031749 49.23413086 102.11352539 C42.63413086 102.11352539 36.03413086 102.11352539 29.23413086 102.11352539 C26.91163219 98.04915273 24.71604354 94.20195297 22.72631836 90.01196289 C22.29706055 89.10961914 21.86780273 88.20727539 21.42553711 87.27758789 C20.77391602 85.89700195 20.77391602 85.89700195 20.10913086 84.48852539 C19.66698242 83.56040039 19.22483398 82.63227539 18.76928711 81.67602539 C16.80148788 77.52640648 14.90807427 73.39201448 13.23413086 69.11352539 C10.59413086 69.11352539 7.95413086 69.11352539 5.23413086 69.11352539 C5.20834961 69.73614258 5.18256836 70.35875977 5.15600586 71.00024414 C4.50911447 81.54163333 2.31478342 91.77800477 0.23413086 102.11352539 C-5.70586914 102.11352539 -11.64586914 102.11352539 -17.76586914 102.11352539 C-17.76586914 93.11416464 -17.76586914 93.11416464 -17.03491211 88.75952148 C-16.87389008 87.78037781 -16.71286804 86.80123413 -16.54696655 85.79241943 C-16.36912628 84.75111877 -16.19128601 83.70981812 -16.00805664 82.63696289 C-15.82433502 81.52895325 -15.6406134 80.4209436 -15.45132446 79.27935791 C-14.85365273 75.68141735 -14.24731168 72.08499698 -13.64086914 68.48852539 C-12.81287575 63.5253942 -11.98881218 58.561612 -11.16430664 53.59790039 C-10.95888245 52.36532501 -10.75345825 51.13274963 -10.54180908 49.86282349 C-9.27895969 42.26981733 -8.05075336 34.67245011 -6.86743164 27.06665039 C-6.72755829 26.16858673 -6.58768494 25.27052307 -6.443573 24.34524536 C-5.92289072 20.9941936 -5.40388735 17.64291557 -4.89227295 14.29046631 C-4.55129242 12.05649369 -4.20578795 9.82326127 -3.85961914 7.59008789 C-3.67077148 6.35339355 -3.48192383 5.11669922 -3.28735352 3.8425293 C-2.58484048 0.16617597 -2.58484048 0.16617597 0 0 Z " fill="#010101" transform="translate(962.765869140625,17.886474609375)"/>
<path d="M0 0 C6.27 0 12.54 0 19 0 C18.52447208 3.77132524 18.04474298 7.54203279 17.5625 11.3125 C17.42779297 12.38435547 17.29308594 13.45621094 17.15429688 14.56054688 C17.02216797 15.58857422 16.89003906 16.61660156 16.75390625 17.67578125 C16.63345947 18.62364502 16.5130127 19.57150879 16.38891602 20.5480957 C16 23 16 23 15 26 C15.49886719 25.71125 15.99773437 25.4225 16.51171875 25.125 C23.87104996 21.31981618 31.3380312 20.73673569 39.43359375 22.54296875 C45.21637672 24.52157691 48.76422802 27.29663863 52.3125 32.1875 C54.17012763 36.26502536 54.30821538 40.20142645 54.2890625 44.61328125 C54.28680161 45.35412964 54.28454071 46.09497803 54.2822113 46.85827637 C54.13135119 55.71105114 52.61421831 64.30437193 51.0625 73 C50.64150554 75.43181927 50.22453054 77.86428677 49.80943298 80.29711914 C49.55328263 81.79053828 49.29318333 83.28328858 49.02809143 84.77514648 C48.24990226 89.21690574 47.68439286 93.63969467 47.26683044 98.13037109 C47 100 47 100 46 102 C40.06 102 34.12 102 28 102 C28.42319079 94.00820476 29.17603805 86.24148028 30.4453125 78.34765625 C30.57983826 77.51100433 30.71436401 76.67435242 30.85296631 75.81234741 C31.41584719 72.3473517 31.98755375 68.88391219 32.56689453 65.42163086 C32.99363198 62.85667658 33.40763785 60.28990497 33.8203125 57.72265625 C33.95357941 56.94962662 34.08684631 56.17659698 34.22415161 55.38014221 C34.97097246 50.68687307 35.0339447 46.70956951 34 42 C31.66388879 39.21463664 30.24952477 39.02772497 26.625 38.625 C21.44503204 39.16085875 18.33718459 40.58852738 14.75 44.375 C10.97937101 50.03094349 10.26170078 55.80500598 9.30859375 62.41015625 C9.158423 63.41461288 9.00825226 64.41906952 8.85353088 65.45396423 C8.37577097 68.65598672 7.90625392 71.85914781 7.4375 75.0625 C6.96374338 78.26919054 6.48825637 81.47561204 6.01075745 84.68174744 C5.71442211 86.67467333 5.42050046 88.66795995 5.1292572 90.66163635 C4.99564285 91.56615036 4.8620285 92.47066437 4.72436523 93.40258789 C4.60826401 94.19580948 4.49216278 94.98903107 4.37254333 95.80628967 C4.0184944 97.89109627 3.51287937 99.94848252 3 102 C-2.94 102 -8.88 102 -15 102 C-14.4188487 89.98450808 -12.78059594 78.35896636 -10.8125 66.5 C-10.3392556 63.60095223 -9.86854372 60.70150074 -9.39807129 57.80200195 C-9.07745475 55.82645628 -8.75608169 53.85103323 -8.43395996 51.87573242 C-6.62303188 40.74851939 -4.92644191 29.60399427 -3.24038696 18.45727539 C-2.88309558 16.09628882 -2.52368067 13.73563307 -2.1640625 11.375 C-2.0601973 10.68224976 -1.95633209 9.98949951 -1.84931946 9.27575684 C-1.36786071 6.12157556 -0.77540278 3.10161111 0 0 Z " fill="#010101" transform="translate(377,18)"/>
<path d="M0 0 C5.1802193 3.84691391 7.52401807 8.54553232 9.0390625 14.75 C10.20715999 23.45763581 8.1620042 32.32423139 6.0390625 40.75 C5.0390625 41.75 5.0390625 41.75 3.24839783 41.87025452 C2.46896317 41.86803391 1.6895285 41.86581329 0.88647461 41.86352539 C0.00563705 41.86344986 -0.8752005 41.86337433 -1.7827301 41.86329651 C-2.74001511 41.85813522 -3.69730011 41.85297394 -4.68359375 41.84765625 C-5.65880478 41.8462413 -6.63401581 41.84482635 -7.63877869 41.84336853 C-10.76702893 41.83775133 -13.89520873 41.82519593 -17.0234375 41.8125 C-19.13867084 41.80748722 -21.25390531 41.80292393 -23.36914062 41.79882812 C-28.56643046 41.78777631 -33.76367895 41.77102146 -38.9609375 41.75 C-38.87385712 43.85494301 -38.76568057 45.95902142 -38.6484375 48.0625 C-38.59042969 49.23425781 -38.53242188 50.40601563 -38.47265625 51.61328125 C-37.93898835 54.88454328 -37.58748984 55.84980288 -34.9609375 57.75 C-31.4997603 59.4805886 -27.75204866 59.09522766 -23.9609375 58.75 C-19.82445575 57.34515714 -18.38433784 56.57391418 -16.37109375 52.65625 C-13.9609375 49.75 -13.9609375 49.75 -11.95385742 49.26220703 C-9.51499995 49.15908084 -7.14730126 49.22653408 -4.7109375 49.375 C-3.45023437 49.41560547 -3.45023437 49.41560547 -2.1640625 49.45703125 C-0.09525116 49.52755891 1.97223643 49.63517633 4.0390625 49.75 C3.29448682 57.7880329 1.23976572 63.12462761 -5.04296875 68.546875 C-15.22716272 75.75250436 -25.74933922 77.08436995 -37.9609375 75.75 C-45.01123686 74.12098673 -50.001845 71.12824911 -54.109375 65.05078125 C-60.12547673 55.21594828 -58.14636063 44.09703562 -56.2109375 33.25 C-56.05367187 32.28191406 -55.89640625 31.31382813 -55.734375 30.31640625 C-53.66071539 18.43274155 -49.64896392 8.04468758 -39.9609375 0.375 C-26.86980383 -6.71603074 -12.83892993 -8.18417844 0 0 Z M-32.2734375 15.4375 C-34.65536561 18.39732393 -34.65536561 18.39732393 -35.9609375 25.75 C-27.3809375 25.75 -18.8009375 25.75 -9.9609375 25.75 C-8.97675418 16.56584697 -8.97675418 16.56584697 -11.8359375 13.1875 C-18.74474034 8.51389808 -25.86161424 10.75860195 -32.2734375 15.4375 Z " fill="#010101" transform="translate(276.9609375,45.25)"/>
<path d="M0 0 C0.99 0.556875 1.98 1.11375 3 1.6875 C4.299375 2.2753125 4.299375 2.2753125 5.625 2.875 C9.70904842 5.99177379 12.2326068 10.32629015 13.8125 15.1875 C14.45262861 23.72254807 13.16998562 31.5334092 11.6875 39.9375 C11.22480202 42.61536249 10.76666911 45.29399966 10.30859375 47.97265625 C10.19512604 48.63260086 10.08165833 49.29254547 9.9647522 49.9724884 C8.83447886 56.57768028 7.84204052 63.20047217 6.90112305 69.83496094 C6.45839977 72.90424128 5.98318916 75.73793251 5 78.6875 C-0.94 78.6875 -6.88 78.6875 -13 78.6875 C-13 69.69089988 -13 69.69089988 -12.34155273 65.74365234 C-12.19817978 64.8626889 -12.05480682 63.98172546 -11.90708923 63.07406616 C-11.67270897 61.68775497 -11.67270897 61.68775497 -11.43359375 60.2734375 C-11.10986819 58.27606724 -10.78630533 56.27867061 -10.46289062 54.28125 C-9.95024279 51.16253981 -9.43448302 48.04438402 -8.9152832 44.92675781 C-8.41322671 41.89775507 -7.92284324 38.86703114 -7.43359375 35.8359375 C-7.27531601 34.90768158 -7.11703827 33.97942566 -6.95396423 33.02304077 C-5.96612905 26.86119399 -5.38733804 22.10649293 -9 16.6875 C-13.31030929 15.32544226 -17.0821497 15.35845933 -21.3125 16.875 C-25.39516792 19.6284272 -27.59472184 21.34257691 -29.0546875 26.1875 C-29.34528915 27.68426944 -29.61718799 29.18473554 -29.875 30.6875 C-30.02936523 31.51604492 -30.18373047 32.34458984 -30.34277344 33.19824219 C-30.91969152 36.35745005 -31.46202349 39.52141817 -32 42.6875 C-32.12113159 43.397854 -32.24226318 44.10820801 -32.36706543 44.84008789 C-34.28839442 56.11545919 -36.15552655 67.39932249 -38 78.6875 C-43.94 78.6875 -49.88 78.6875 -56 78.6875 C-56 69.68745516 -56 69.68745516 -55.42089844 66.04516602 C-55.29353302 65.22474319 -55.1661676 64.40432037 -55.03494263 63.55903625 C-54.89450531 62.69521835 -54.75406799 61.83140045 -54.609375 60.94140625 C-54.46466766 60.02026535 -54.31996033 59.09912445 -54.17086792 58.15007019 C-53.70318797 55.18240365 -53.22684641 52.21620619 -52.75 49.25 C-52.42709087 47.21589657 -52.10466377 45.18171656 -51.78271484 43.14746094 C-51.14905907 39.14938045 -50.51198221 35.15186889 -49.87207031 31.15478516 C-49.12852508 26.50486051 -48.39989484 21.85280628 -47.6796875 17.19921875 C-47.32823355 14.94529557 -46.97668255 12.69138752 -46.625 10.4375 C-46.46999023 9.42888916 -46.31498047 8.42027832 -46.15527344 7.38110352 C-45.94306152 6.0400354 -45.94306152 6.0400354 -45.7265625 4.671875 C-45.60877441 3.91616211 -45.49098633 3.16044922 -45.36962891 2.38183594 C-45 0.6875 -45 0.6875 -44 -0.3125 C-41.13732433 -0.38575168 -38.299281 -0.40488205 -35.4375 -0.375 C-34.63119141 -0.37048828 -33.82488281 -0.36597656 -32.99414062 -0.36132812 C-30.99606244 -0.34950518 -28.99802217 -0.33156914 -27 -0.3125 C-26.67 0.6775 -26.34 1.6675 -26 2.6875 C-25.25169922 2.254375 -25.25169922 2.254375 -24.48828125 1.8125 C-16.98025783 -2.06956597 -8.01690339 -3.2907813 0 0 Z " fill="#010101" transform="translate(928,41.3125)"/>
<path d="M0 0 C18.81 0 37.62 0 57 0 C58.83366196 5.50098588 56.26302864 11.49319514 55 17 C48.73 17 42.46 17 36 17 C35.62488281 19.47886719 35.24976563 21.95773438 34.86328125 24.51171875 C31.7939689 44.71621499 28.5723741 64.87773347 25 85 C31.27 85 37.54 85 44 85 C43.125 97.5 43.125 97.5 42 102 C22.86 102 3.72 102 -16 102 C-15 91 -15 91 -13 85 C-6.73 85 -0.46 85 6 85 C6.12238037 83.45981201 6.24476074 81.91962402 6.37084961 80.33276367 C6.97335707 73.72785055 7.99274594 67.21822518 9.06640625 60.67578125 C9.26475571 59.44836716 9.46310516 58.22095306 9.66746521 56.9563446 C10.29560039 53.07447879 10.92896284 49.19348745 11.5625 45.3125 C11.9923104 42.66483877 12.42097483 40.01699244 12.84960938 37.36914062 C13.89576735 30.91210898 14.94661102 24.45585576 16 18 C10.06 17.67 4.12 17.34 -2 17 C-2 9 -2 9 0 0 Z " fill="#010101" transform="translate(525,18)"/>
<path d="M0 0 C5.42425959 4.21997443 8.22498742 8.92398192 9.81640625 15.59375 C10.21928055 19.43565275 10.57295632 23.08064986 8.81640625 26.59375 C2.87640625 26.59375 -3.06359375 26.59375 -9.18359375 26.59375 C-9.57421875 24.08723958 -9.96484375 21.58072917 -10.35546875 19.07421875 C-11.37949479 16.00697094 -12.36859918 15.13147835 -15.18359375 13.59375 C-19.5005433 12.79315208 -23.36773335 13.31666534 -27.49609375 14.71875 C-34.27936506 19.45126487 -35.0810449 25.37681219 -36.58984375 33.19140625 C-38.78911964 44.95087544 -38.78911964 44.95087544 -37.18359375 56.59375 C-32.86344991 59.45464526 -28.16938307 59.20215852 -23.18359375 58.59375 C-17.03573153 55.92580979 -15.06329972 51.35316194 -12.18359375 45.59375 C-6.57359375 45.59375 -0.96359375 45.59375 4.81640625 45.59375 C6.3952304 50.33022244 4.7214857 54.10088344 2.81640625 58.59375 C-2.32464436 66.81684102 -8.65363099 72.75669906 -17.921875 75.8671875 C-28.20735672 78.15832474 -39.92420078 77.72191544 -49.203125 72.4453125 C-54.59097769 68.52068717 -56.87170469 63.00652446 -58.18359375 56.59375 C-58.78734167 49.2058817 -57.55741687 41.94013341 -56.43359375 34.65625 C-56.27632813 33.54056641 -56.1190625 32.42488281 -55.95703125 31.27539062 C-54.10848168 19.13895169 -50.71745025 9.75322658 -41.18359375 1.59375 C-29.05785179 -5.63856668 -12.33149267 -7.94156952 0 0 Z " fill="#010101" transform="translate(350.18359375,44.40625)"/>
<path d="M0 0 C23.43 0 46.86 0 71 0 C69 16 69 16 68 17 C66.07332493 17.08748207 64.14348139 17.10697334 62.21484375 17.09765625 C61.04501953 17.09443359 59.87519531 17.09121094 58.66992188 17.08789062 C57.43822266 17.07951172 56.20652344 17.07113281 54.9375 17.0625 C53.08415039 17.05573242 53.08415039 17.05573242 51.19335938 17.04882812 C48.12885883 17.03699608 45.06445279 17.02051173 42 17 C41.95319092 17.55727783 41.90638184 18.11455566 41.8581543 18.6887207 C41.16817257 26.24352615 40.01223209 33.69900065 38.8125 41.1875 C38.36458996 44.00890991 37.9186519 46.83063067 37.47265625 49.65234375 C37.35554291 50.39159088 37.23842957 51.13083801 37.11776733 51.89248657 C36.18352791 57.80180395 35.27350678 63.71465214 34.37109375 69.62890625 C34.23576736 70.51470871 34.10044098 71.40051117 33.96101379 72.31315613 C33.4243395 75.82718824 32.88787673 79.34124811 32.35464478 82.85580444 C31.9828783 85.30516715 31.60882633 87.75417154 31.234375 90.203125 C31.06904518 91.29948021 31.06904518 91.29948021 30.90037537 92.41798401 C30.40103537 95.67232998 29.79980593 98.80077629 29 102 C22.73 102 16.46 102 10 102 C11.70913386 87.17512152 14.1063199 72.47770238 16.5 57.75 C16.90780529 55.22660341 17.31535909 52.70316616 17.72265625 50.1796875 C18.47311818 45.53589003 19.22429823 40.89221256 19.97851562 36.24902344 C20.20263123 34.86913239 20.20263123 34.86913239 20.43127441 33.46136475 C21.27832609 28.30605807 22.14110877 23.15334739 23 18 C14.75 17.67 6.5 17.34 -2 17 C-2 9 -2 9 0 0 Z " fill="#010101" transform="translate(154,18)"/>
<path d="M0 0 C23.43 0 46.86 0 71 0 C70 12 70 12 68 17 C59.42 17 50.84 17 42 17 C41.67 20.63 41.34 24.26 41 28 C40.5368426 31.18806406 40.04973942 34.35661763 39.51171875 37.53125 C39.29678017 38.83146339 39.29678017 38.83146339 39.07749939 40.15794373 C38.77353169 41.99544865 38.46790557 43.83267992 38.16070557 45.66964722 C37.36035192 50.45674891 36.5722921 55.2458659 35.78515625 60.03515625 C35.62992493 60.97871475 35.4746936 61.92227325 35.3147583 62.89442444 C33.82479812 71.99191276 32.4575221 81.10422307 31.1550293 90.23046875 C30.94293823 91.70773438 30.94293823 91.70773438 30.7265625 93.21484375 C30.60877441 94.05136475 30.49098633 94.88788574 30.36962891 95.74975586 C30.02391634 97.854401 29.51729206 99.93083174 29 102 C23.06 102 17.12 102 11 102 C9.89147241 98.67441722 10.10790317 97.33374007 10.71484375 93.9375 C10.90280518 92.8542041 11.0907666 91.7709082 11.28442383 90.65478516 C11.49993896 89.44870605 11.7154541 88.24262695 11.9375 87 C12.40111987 84.32073822 12.86248545 81.64118672 13.3203125 78.9609375 C13.51168541 77.84433243 13.51168541 77.84433243 13.70692444 76.70516968 C15.693541 65.03105316 17.48689485 53.32512311 19.3125 41.625 C19.67761219 39.28905612 20.04276443 36.9531185 20.40795898 34.6171875 C21.27369914 29.07839205 22.13677735 23.53919051 23 18 C14.75 17.67 6.5 17.34 -2 17 C-1.125 3.375 -1.125 3.375 0 0 Z " fill="#010101" transform="translate(591,18)"/>
<path d="M0 0 C0.84477905 0.00202423 1.68955811 0.00404846 2.55993652 0.00613403 C3.42179565 0.00517731 4.28365479 0.00422058 5.17163086 0.00323486 C6.99751864 0.00255304 8.82340884 0.00440749 10.64929199 0.00857544 C13.45419731 0.01392367 16.25894248 0.00863054 19.06384277 0.00222778 C20.83337438 0.00288856 22.60290588 0.00416973 24.37243652 0.00613403 C25.21721558 0.0041098 26.06199463 0.00208557 26.93237305 0 C32.85123621 0.02399622 32.85123621 0.02399622 33.96618652 1.13894653 C33.74662546 8.34424652 32.53238087 15.52385928 31.37243652 22.62722778 C31.22085083 23.5740593 31.06926514 24.52089081 30.91308594 25.49641418 C30.43425658 28.48199533 29.95030107 31.46671835 29.46618652 34.45144653 C29.14163101 36.47027263 28.81740956 38.48915246 28.49353027 40.50808716 C27.33469872 47.72129155 26.1672384 54.9326353 24.96618652 62.13894653 C32.55618652 62.13894653 40.14618652 62.13894653 47.96618652 62.13894653 C49.1834379 65.79070066 48.70346882 67.98121616 48.09118652 71.76394653 C47.81661621 73.51578247 47.81661621 73.51578247 47.53649902 75.30300903 C46.96618652 78.13894653 46.96618652 78.13894653 45.96618652 79.13894653 C43.84937335 79.23316394 41.72937894 79.25637414 39.61047363 79.25247192 C38.94708481 79.25261795 38.28369598 79.25276398 37.60020447 79.25291443 C35.39794697 79.25221534 33.19577308 79.24442318 30.99353027 79.23660278 C29.47038316 79.23473859 27.94723545 79.23331469 26.42408752 79.23231506 C22.40781001 79.22849 18.39156845 79.21865981 14.37530518 79.20761108 C10.27995286 79.19739672 6.18459477 79.19281739 2.0892334 79.18777466 C-5.95179876 79.17703753 -13.99280165 79.15996125 -22.03381348 79.13894653 C-21.91747989 77.61742574 -21.79022477 76.0967393 -21.65881348 74.57644653 C-21.5892041 73.72953247 -21.51959473 72.88261841 -21.44787598 72.01004028 C-21.03381348 69.13894653 -21.03381348 69.13894653 -19.03381348 62.13894653 C-10.78381348 62.13894653 -2.53381348 62.13894653 5.96618652 62.13894653 C6.19306152 59.91144653 6.41993652 57.68394653 6.65368652 55.38894653 C8.07300843 42.53832927 10.61378187 29.8437274 12.96618652 17.13894653 C5.70618652 17.13894653 -1.55381348 17.13894653 -9.03381348 17.13894653 C-8.72443848 14.51957153 -8.41506348 11.90019653 -8.09631348 9.20144653 C-8.00100342 8.37523804 -7.90569336 7.54902954 -7.80749512 6.69778442 C-6.99538605 0.02053553 -6.68184901 0.02708951 0 0 Z " fill="#010101" transform="translate(819.0338134765625,40.861053466796875)"/>
<path d="M0 0 C0.74886475 0.00523682 1.49772949 0.01047363 2.26928711 0.01586914 C3.07817383 0.0190918 3.88706055 0.02231445 4.72045898 0.02563477 C5.5705957 0.03401367 6.42073242 0.04239258 7.29663086 0.05102539 C8.15063477 0.05553711 9.00463867 0.06004883 9.88452148 0.06469727 C12.00108749 0.07652166 14.11761771 0.0944577 16.23413086 0.11352539 C13.97155275 28.62981161 8.14215204 56.96458037 3.23413086 85.11352539 C17.42413086 85.11352539 31.61413086 85.11352539 46.23413086 85.11352539 C45.23413086 98.11352539 45.23413086 98.11352539 44.23413086 102.11352539 C23.77413086 102.11352539 3.31413086 102.11352539 -17.76586914 102.11352539 C-16.64003806 89.72938355 -16.64003806 89.72938355 -15.89086914 84.82446289 C-15.71458984 83.66237305 -15.53831055 82.5002832 -15.35668945 81.30297852 C-15.16171875 80.04420898 -14.96674805 78.78543945 -14.76586914 77.48852539 C-14.55581227 76.12070158 -14.34585542 74.7528624 -14.13598633 73.38500977 C-13.50690142 69.29714352 -12.87114162 65.2103331 -12.234375 61.12365723 C-11.71026017 57.75623992 -11.18823682 54.38850128 -10.66625977 51.02075195 C-9.6592254 44.52823018 -8.646619 38.03659517 -7.63061523 31.54547119 C-7.220179 28.92030113 -6.81100292 26.29493374 -6.40307617 23.66937256 C-5.82491755 19.9521948 -5.24140858 16.23589526 -4.65649414 12.51977539 C-4.48063782 11.38275177 -4.30478149 10.24572815 -4.12359619 9.07424927 C-3.95946228 8.03855804 -3.79532837 7.00286682 -3.6262207 5.93579102 C-3.41234711 4.56952576 -3.41234711 4.56952576 -3.19415283 3.17565918 C-2.56890173 0.16515129 -2.56890173 0.16515129 0 0 Z " fill="#010101" transform="translate(746.765869140625,17.886474609375)"/>
<path d="M0 0 C0.72509766 -0.02900391 1.45019531 -0.05800781 2.19726562 -0.08789062 C5.68911535 -0.12942223 7.77907869 0.02499713 10.66796875 2.05859375 C13.16329496 5.75988738 12.91163693 9.01247041 12.1875 13.3125 C10.31716697 17.35241934 8.79968456 18.94038781 5 21.25 C0.35933565 22.5432999 -3.18965037 22.69503447 -7.8125 21.3125 C-10.875 19.3125 -10.875 19.3125 -12.8125 16.3125 C-13.76412051 11.69883983 -13.48319806 7.79191983 -10.875 3.8125 C-7.4626949 -0.3236274 -5.19472855 0.06817229 0 0 Z " fill="#010101" transform="translate(846.8125,12.6875)"/>
<path d="M0 0 C-4.69766975 5.66129431 -9.74723372 10.85228904 -15 16 C-15 13 -15 13 -13.375 10.5625 C-12.92125 9.716875 -12.4675 8.87125 -12 8 C-12.69140351 5.69712207 -12.69140351 5.69712207 -14 4 C-9.09075703 0.07260562 -6.26079448 -0.43177893 0 0 Z " fill="#2D7AD9" transform="translate(34,114)"/>
<path d="M0 0 C0.66 0.33 1.32 0.66 2 1 C1.67 2.65 1.34 4.3 1 6 C1.66 6 2.32 6 3 6 C1.25 9.875 1.25 9.875 -1 11 C-2.32 11 -3.64 11 -5 11 C-5.33 11.66 -5.66 12.32 -6 13 C-7.65 12.67 -9.3 12.34 -11 12 C-7.49102731 7.81576108 -3.91939465 3.80411834 0 0 Z " fill="#2C7AE1" transform="translate(75,96)"/>
<path d="M0 0 C0.66 0.33 1.32 0.66 2 1 C1.34 3.31 0.68 5.62 0 8 C0.99 8.33 1.98 8.66 3 9 C1.0625 9.5625 1.0625 9.5625 -1 10 C-1.33 9.67 -1.66 9.34 -2 9 C-3.32 10.32 -4.64 11.64 -6 13 C-6.33 12.34 -6.66 11.68 -7 11 C-7.66 11.66 -8.32 12.32 -9 13 C-9.99 12.67 -10.98 12.34 -12 12 C-9.53067374 9.46012156 -7.09363826 7.07403955 -4.3125 4.875 C-1.80846331 3.03438927 -1.80846331 3.03438927 0 0 Z " fill="#317ADC" transform="translate(101,70)"/>
<path d="M0 0 C0 0.99 0 1.98 0 3 C-0.33 3.33 -0.66 3.66 -1 4 C-1.36760731 6.32817964 -1.70241581 8.6618385 -2 11 C-4.31 10.67 -6.62 10.34 -9 10 C-6.43571997 5.82117329 -3.98069267 2.87494471 0 0 Z " fill="#347AD5" transform="translate(88,84)"/>
<path d="M0 0 C1.65 0 3.3 0 5 0 C1.6189962 4.13621084 -1.66590534 7.81316569 -6 11 C-5.67 9.02 -5.34 7.04 -5 5 C-3.68 5 -2.36 5 -1 5 C-0.67 3.35 -0.34 1.7 0 0 Z " fill="#3376CC" transform="translate(67,76)"/>
<path d="M0 0 C0.99 0.33 1.98 0.66 3 1 C2.36191406 1.62648438 1.72382812 2.25296875 1.06640625 2.8984375 C0.24011719 3.71570313 -0.58617188 4.53296875 -1.4375 5.375 C-2.26121094 6.18710938 -3.08492188 6.99921875 -3.93359375 7.8359375 C-6.03434672 9.82348515 -6.03434672 9.82348515 -7 12 C-7.99 11.67 -8.98 11.34 -10 11 C-9.67 10.34 -9.34 9.68 -9 9 C-8.34 9 -7.68 9 -7 9 C-6.67 8.01 -6.34 7.02 -6 6 C-4.37446717 4.29319053 -2.70884005 2.62339805 -1 1 C-0.67 0.67 -0.34 0.34 0 0 Z " fill="#3073CC" transform="translate(125,75)"/>
<path d="M0 0 C0.99 0.99 1.98 1.98 3 3 C0.03 5.97 -2.94 8.94 -6 12 C-6.33 11.01 -6.66 10.02 -7 9 C-5.625 7.5 -5.625 7.5 -4 6 C-3.34 6 -2.68 6 -2 6 C-2.33 4.68 -2.66 3.36 -3 2 C-2.34 1.67 -1.68 1.34 -1 1 C-0.67 0.67 -0.34 0.34 0 0 Z " fill="#2C76D1" transform="translate(99,99)"/>
<path d="M0 0 C0.66 0.33 1.32 0.66 2 1 C-1.96 4.96 -5.92 8.92 -10 13 C-10.33 12.01 -10.66 11.02 -11 10 C-10.54109375 9.61328125 -10.0821875 9.2265625 -9.609375 8.828125 C-6.274919 5.99804049 -3.03498697 3.15638645 0 0 Z " fill="#3070C7" transform="translate(83,118)"/>
<path d="M0 0 C2.31 0 4.62 0 7 0 C6.06725891 1.12894876 5.12859878 2.25300876 4.1875 3.375 C3.66542969 4.00148438 3.14335938 4.62796875 2.60546875 5.2734375 C1 7 1 7 -2 9 C-1.505 7.6078125 -1.505 7.6078125 -1 6.1875 C0.14967004 3.07970709 0.14967004 3.07970709 0 0 Z " fill="#2F77CD" transform="translate(43,98)"/>
<path d="M0 0 C0.99 0.33 1.98 0.66 3 1 C3.3327958 4.66075376 3.46170299 6.39500988 1.1875 9.375 C-1 11 -1 11 -4 11 C-2.63016497 7.83884224 -2.0109362 7.0072908 1 5 C0.67 3.35 0.34 1.7 0 0 Z " fill="#387DCE" transform="translate(48,63)"/>
<path d="M0 0 C1.0828125 1.11375 1.0828125 1.11375 2.1875 2.25 C4.89539371 5.00408972 4.89539371 5.00408972 7.75 7.125 C10 9 10 9 11 12 C9.68 11.67 8.36 11.34 7 11 C7 10.01 7 9.02 7 8 C5.68 7.34 4.36 6.68 3 6 C3 5.34 3 4.68 3 4 C2.01 4 1.02 4 0 4 C0 2.68 0 1.36 0 0 Z " fill="#2A70C9" transform="translate(102,31)"/>
<path d="M0 0 C2.125 0.375 2.125 0.375 4 1 C3.67 2.65 3.34 4.3 3 6 C2.21625 5.814375 1.4325 5.62875 0.625 5.4375 C-1.97089775 4.74037734 -1.97089775 4.74037734 -4 6 C-2.84826645 3.53199953 -1.95216435 1.95216435 0 0 Z " fill="#307BD6" transform="translate(60,0)"/>
<path d="M0 0 C0 3.52032428 -0.70351351 4.4385343 -3 7 C-3.66 7 -4.32 7 -5 7 C-5.33 8.65 -5.66 10.3 -6 12 C-7 9 -7 9 -5.8125 6 C-4.08353838 3.13827041 -2.80044545 1.73820752 0 0 Z " fill="#3170D2" transform="translate(62,110)"/>
<path d="M0 0 C1.65 0 3.3 0 5 0 C5 0.99 5 1.98 5 3 C5.66 3 6.32 3 7 3 C7.33 4.65 7.66 6.3 8 8 C6.85073734 7.04578192 5.70569459 6.08647955 4.5625 5.125 C3.92441406 4.59132813 3.28632812 4.05765625 2.62890625 3.5078125 C1 2 1 2 0 0 Z " fill="#377CCE" transform="translate(88,48)"/>
<path d="M0 0 C0.33 0.66 0.66 1.32 1 2 C0.00102287 4.99693138 -0.65130253 6.02709413 -3 8 C-3.66 8 -4.32 8 -5 8 C-4.64950425 4.75791433 -4.43778819 3.38472296 -1.9375 1.1875 C-1.298125 0.795625 -0.65875 0.40375 0 0 Z " fill="#3578CA" transform="translate(5,0)"/>
<path d="M0 0 C1.32 0.33 2.64 0.66 4 1 C1.69 3.31 -0.62 5.62 -3 8 C-3.66 7.34 -4.32 6.68 -5 6 C-4.360625 5.38125 -3.72125 4.7625 -3.0625 4.125 C-0.96116416 2.17402388 -0.96116416 2.17402388 0 0 Z " fill="#3176CC" transform="translate(108,91)"/>
<path d="M0 0 C0.33 0 0.66 0 1 0 C1.125 3.375 1.125 3.375 1 7 C0.34 7.66 -0.32 8.32 -1 9 C-1 8.01 -1 7.02 -1 6 C-1.66 6 -2.32 6 -3 6 C-3 5.01 -3 4.02 -3 3 C-2.01 3 -1.02 3 0 3 C0 2.01 0 1.02 0 0 Z " fill="#2E7BD5" transform="translate(76,63)"/>
<path d="M0 0 C1.65 1.65 3.3 3.3 5 5 C4.34 6.65 3.68 8.3 3 10 C2.34 9.34 1.68 8.68 1 8 C1.66 7.01 2.32 6.02 3 5 C2.34 5 1.68 5 1 5 C0.67 3.35 0.34 1.7 0 0 Z " fill="#2970D8" transform="translate(122,51)"/>
<path d="M0 0 C0.66 0 1.32 0 2 0 C2 0.66 2 1.32 2 2 C2.66 2 3.32 2 4 2 C4.33 3.98 4.66 5.96 5 8 C2.21611025 6.29374499 1.14615794 5.52373261 0.25 2.3125 C0.1675 1.549375 0.085 0.78625 0 0 Z " fill="#387BC9" transform="translate(55,12)"/>
<path d="M0 0 C0.66 0 1.32 0 2 0 C1.8125 1.875 1.8125 1.875 1 4 C-1.5625 5.25 -1.5625 5.25 -4 6 C-2.84826645 3.53199953 -1.95216435 1.95216435 0 0 Z " fill="#3977C9" transform="translate(35,81)"/>
<path d="M0 0 C1.24546405 2.49092811 0.7767578 3.41080733 0 6 C-1.65 5.67 -3.3 5.34 -5 5 C-3.35 3.35 -1.7 1.7 0 0 Z " fill="#3A7CCF" transform="translate(69,103)"/>
<path d="M0 0 C1.98 0 3.96 0 6 0 C6 1.98 6 3.96 6 6 C3.96166576 4.7260411 1.96147874 3.38938077 0 2 C0 1.34 0 0.68 0 0 Z " fill="#337DDD" transform="translate(26,41)"/>
<path d="M0 0 C2.31 1.98 4.62 3.96 7 6 C6.67 6.66 6.34 7.32 6 8 C5.01 7.67 4.02 7.34 3 7 C3 6.01 3 5.02 3 4 C2.01 3.67 1.02 3.34 0 3 C0 2.01 0 1.02 0 0 Z " fill="#2D73C9" transform="translate(74,3)"/>
<path d="M0 0 C3.25543229 0.34879632 4.01873107 1.02133261 6.25 3.5625 C6.8275 4.366875 7.405 5.17125 8 6 C5.525 5.01 5.525 5.01 3 4 C3 3.34 3 2.68 3 2 C2.01 2 1.02 2 0 2 C0 1.34 0 0.68 0 0 Z " fill="#2673CA" transform="translate(13,0)"/>
</svg>
